<?xml version="1.0" encoding="utf-8"?>
<!-- Generator: Adobe Illustrator 21.0.0, SVG Export Plug-In . SVG Version: 6.00 Build 0)  -->
<svg version="1.1" id="Layer_1" xmlns="http://www.w3.org/2000/svg" xmlns:xlink="http://www.w3.org/1999/xlink" x="0px" y="0px"
	 viewBox="0 0 25.9 27.5" style="enable-background:new 0 0 25.9 27.5;" xml:space="preserve">
<style type="text/css">
	.st0{fill:#A9A29A;}
</style>
<g>
	<g>
		<path class="st0" d="M10.6,26.5c0-8.5,0.1-16.9,0.1-25.4c-0.4,0.3-0.9,0.7-1.3,1c6,2.3,10.1,7,11.7,13.2c0.5-0.4,1-0.8,1.5-1.2
			C16,9.9,8.8,7.7,1,7.6c0.1,0.7,0.2,1.4,0.3,2.1c7.9-1.5,15.8-3,23.7-4.4c-0.4-0.5-0.8-1-1.2-1.5c-3.6,4.8-7.6,9.1-12.1,13
			c-1,0.9,0.5,2.4,1.5,1.5c4.7-4,8.8-8.5,12.4-13.4c0.6-0.8-0.4-1.7-1.2-1.5c-7.9,1.5-15.8,3-23.7,4.4c-1.2,0.2-0.9,2,0.3,2.1
			c7.4,0.2,14.2,2.2,20.5,6.2c0.8,0.5,1.8-0.3,1.5-1.2C21.3,7.8,16.6,2.6,9.9,0.1c-0.7-0.2-1.3,0.4-1.3,1c0,8.5-0.1,16.9-0.1,25.4
			C8.5,27.8,10.6,27.8,10.6,26.5L10.6,26.5z"/>
	</g>
</g>
</svg>
