<?xml version="1.0" encoding="utf-8"?>
<!-- Generator: Adobe Illustrator 21.0.0, SVG Export Plug-In . SVG Version: 6.00 Build 0)  -->
<svg version="1.1" id="Layer_1" xmlns="http://www.w3.org/2000/svg" xmlns:xlink="http://www.w3.org/1999/xlink" x="0px" y="0px"
	 viewBox="0 0 21.8 17" style="enable-background:new 0 0 21.8 17;" xml:space="preserve">
<style type="text/css">
	.st0{fill:#A29B70;}
</style>
<g>
	<g>
		<path class="st0" d="M10.7,16.3c0.7-5,1.5-10,2.2-15c-0.6,0.1-1.3,0.2-1.9,0.3c1.8,3.6,3.6,7.1,5.5,10.7c0.4-0.5,0.8-1,1.2-1.5
			C12.3,8.6,6.9,7,1.3,5.7c0,0.7,0,1.3,0,2c3-0.8,6-1.6,9.1-2.3c1.3-0.3,8.5-3,9.5-1.6c0.1-0.5,0.3-1,0.4-1.4
			c-5.1,3.8-9.7,7.9-14,12.6c-0.9,1,0.6,2.5,1.5,1.5c4.1-4.5,8.6-8.6,13.6-12.3c0.4-0.3,0.7-0.9,0.4-1.4c-1.4-2.2-3.6-1.5-5.8-1
			C10.8,3,5.8,4.4,0.8,5.7c-1,0.3-1,1.8,0,2c5.6,1.3,11,3,16.3,5c0.9,0.4,1.6-0.8,1.2-1.5c-1.8-3.6-3.6-7.1-5.5-10.7
			c-0.4-0.8-1.8-0.7-1.9,0.3c-0.7,5-1.5,10-2.2,15C8.5,17,10.5,17.6,10.7,16.3L10.7,16.3z"/>
	</g>
</g>
</svg>
