<?xml version="1.0" encoding="utf-8"?>
<!-- Generator: Adobe Illustrator 21.0.0, SVG Export Plug-In . SVG Version: 6.00 Build 0)  -->
<svg version="1.1" id="Layer_1" xmlns="http://www.w3.org/2000/svg" xmlns:xlink="http://www.w3.org/1999/xlink" x="0px" y="0px"
	 viewBox="0 0 19.4 19.2" style="enable-background:new 0 0 19.4 19.2;" xml:space="preserve">
<style type="text/css">
	.st0{fill:#A29B70;}
</style>
<g>
	<g>
		<path class="st0" d="M8.4,18.2C8.9,12.5,10,6.8,11.5,1.3C10.8,1.2,10.1,1.1,9.4,1C10,5.4,11,9.6,12.6,13.8c0.5-0.4,1-0.8,1.5-1.2
			C10.1,10.2,5.7,9,1,8.9c0.1,0.7,0.2,1.4,0.3,2.1c2.5-0.9,4.9-1.7,7.4-2.5c1.9-0.6,4.9-2.1,6.9-2.1c1.7,0,1.1,0.2,0.6,1.4
			c-0.4,1-1.6,2.2-2.3,3.1c-1.5,2.1-3.1,4.1-4.6,6.2c-0.8,1.1,1,2.1,1.8,1.1c2.3-3.1,4.6-6.2,6.9-9.3c0.9-1.3,2.3-3.1,0.6-4.4
			C17,3.2,14,4.7,12.5,5.1C8.5,6.3,4.6,7.6,0.7,9C-0.3,9.4-0.2,11,1,11c4.4,0,8.3,1.1,12,3.4c0.7,0.4,1.9-0.3,1.5-1.2
			c-1.5-4-2.6-8-3.1-12.2c-0.1-1.1-1.7-1.5-2.1-0.3C7.9,6.5,6.9,12.3,6.3,18.2C6.2,19.5,8.3,19.5,8.4,18.2L8.4,18.2z"/>
	</g>
</g>
</svg>
