<?xml version="1.0" encoding="utf-8"?>
<!-- Generator: Adobe Illustrator 21.0.0, SVG Export Plug-In . SVG Version: 6.00 Build 0)  -->
<svg version="1.1" id="Layer_1" xmlns="http://www.w3.org/2000/svg" xmlns:xlink="http://www.w3.org/1999/xlink" x="0px" y="0px"
	 viewBox="0 0 21.5 19.7" style="enable-background:new 0 0 21.5 19.7;" xml:space="preserve">
<style type="text/css">
	.st0{fill:#A9A29A;}
</style>
<g>
	<g>
		<path class="st0" d="M10.1,18.7c0.1-5.9,0.2-11.7,0.2-17.6C9.7,1.3,9.1,1.6,8.5,1.8c2.3,3,4.7,6,7,8.9c0.2-0.6,0.3-1.2,0.5-1.8
			c-4.9,1.3-9.9,1.7-15,1.3c0.1,0.7,0.2,1.4,0.3,2.1C8.4,10,15,6.7,21,2.3c-0.5-0.5-1-1-1.4-1.4C16.8,6.3,13.1,11,8.3,15
			c-1,0.9,0.5,2.3,1.5,1.5c4.9-4,8.7-8.9,11.6-14.6c0.4-0.8-0.5-2.1-1.4-1.4C14.1,4.8,7.7,8.1,0.7,10.3c-1.2,0.4-0.9,2,0.3,2.1
			c5.3,0.4,10.4-0.1,15.5-1.4c0.8-0.2,0.9-1.2,0.5-1.8c-2.3-3-4.7-6-7-8.9C9.4-0.4,8.2,0.2,8.2,1.1C8.1,6.9,8,12.8,8,18.7
			C7.9,20,10,20,10.1,18.7L10.1,18.7z"/>
	</g>
</g>
</svg>
