<?xml version="1.0" encoding="utf-8"?>
<!-- Generator: Adobe Illustrator 21.0.0, SVG Export Plug-In . SVG Version: 6.00 Build 0)  -->
<svg version="1.1" id="Layer_1" xmlns="http://www.w3.org/2000/svg" xmlns:xlink="http://www.w3.org/1999/xlink" x="0px" y="0px"
	 viewBox="0 0 20 31" style="enable-background:new 0 0 20 31;" xml:space="preserve">
<style type="text/css">
	.st0{fill:#A29B70;}
</style>
<g>
	<g>
		<path class="st0" d="M11.8,29.7c-2.1-9.7-4.1-19.3-6.2-29c-0.7,0.2-1.3,0.4-2,0.6c3.2,7.8,8,14.4,14.6,19.7
			c0.4-0.5,0.8-1.1,1.3-1.6c-5.8-3-11.9-4.4-18.4-4.3c0.2,0.7,0.4,1.3,0.5,2c5.1-3.8,10.1-7.6,15.2-11.5c-0.5-0.2-1-0.4-1.5-0.6
			C16,10.5,13.8,15.7,9.3,19c-1.1,0.8,0,2.6,1.1,1.8c5.3-4,7.8-9.9,6.9-16.5c-0.1-0.6-1-1-1.5-0.6C10.6,7.6,5.5,11.4,0.5,15.2
			c-0.8,0.6-0.6,2,0.5,2c6.2-0.1,11.9,1.2,17.4,4c1,0.5,2.3-0.9,1.3-1.6c-6.3-5-11-11.3-14.1-18.8c-0.5-1.2-2.3-0.8-2,0.6
			c2.1,9.7,4.1,19.3,6.2,29C10,31.6,12.1,31,11.8,29.7L11.8,29.7z"/>
	</g>
</g>
</svg>
